<svg width="16" height="19" viewBox="0 0 16 19" fill="none" xmlns="http://www.w3.org/2000/svg">
<path d="M12.9719 17.8574C11.9936 18.8058 10.9254 18.656 9.89708 18.2068C8.80891 17.7476 7.81058 17.7276 6.66251 18.2068C5.22492 18.8257 4.4662 18.646 3.60764 17.8574C-1.26418 12.8358 -0.545391 5.18863 4.98533 4.9091C6.33306 4.97899 7.27149 5.64786 8.06017 5.70776C9.23819 5.46816 10.3663 4.77932 11.6242 4.86917C13.1317 4.98897 14.2697 5.58796 15.0185 6.66615C11.9037 8.53302 12.6425 12.6361 15.4977 13.7842C14.9286 15.2817 14.1899 16.7692 12.9619 17.8674L12.9719 17.8574ZM7.96033 4.8492C7.81058 2.62294 9.61755 0.786022 11.6941 0.606323C11.9836 3.182 9.35799 5.09878 7.96033 4.8492Z" fill="white"/>
</svg>
